<svg width="22" height="22" viewBox="0 0 22 22" fill="none" xmlns="http://www.w3.org/2000/svg">
<g clip-path="url(#clip0)">
<path d="M21.7546 10.1531C20.6086 8.27882 19.0677 6.77287 17.1322 5.63526C15.1965 4.4976 13.1525 3.92871 11 3.92871C8.84746 3.92871 6.8034 4.49739 4.86775 5.63526C2.93205 6.77287 1.39127 8.27882 0.245445 10.1531C0.0818293 10.4395 0 10.7219 0 11.0002C0 11.2786 0.0818293 11.5609 0.245445 11.8473C1.39127 13.7216 2.93205 15.2277 4.86775 16.365C6.8034 17.5028 8.84746 18.0713 11 18.0713C13.1526 18.0713 15.1966 17.5047 17.1322 16.3712C19.0677 15.2377 20.6088 13.7297 21.7546 11.8473C21.9182 11.5609 22 11.2787 22 11.0002C22 10.7219 21.9182 10.4395 21.7546 10.1531ZM8.36645 6.79532C9.09892 6.06285 9.97668 5.69649 10.9999 5.69649C11.1635 5.69649 11.3027 5.75394 11.4174 5.86845C11.5318 5.983 11.5894 6.12219 11.5894 6.28585C11.5894 6.44964 11.5318 6.58874 11.4176 6.70312C11.3032 6.81781 11.1638 6.87508 11.0002 6.87508C10.2963 6.87508 9.6946 7.12483 9.19541 7.62397C8.69605 8.12342 8.44652 8.72491 8.44652 9.42873C8.44652 9.59261 8.38907 9.73163 8.27456 9.84626C8.15988 9.96099 8.02082 10.0182 7.85716 10.0182C7.69337 10.0182 7.55427 9.96086 7.43963 9.84626C7.32495 9.73163 7.26767 9.59243 7.26767 9.42873C7.26767 8.40576 7.63403 7.52782 8.36645 6.79532ZM16.3343 15.0088C14.6933 16.0029 12.9152 16.5003 11 16.5003C9.08482 16.5003 7.30676 16.0032 5.66579 15.0088C4.02481 14.0143 2.66003 12.6782 1.57153 11.0002C2.81556 9.06861 4.37471 7.62393 6.24896 6.66653C5.74972 7.51759 5.50002 8.43844 5.50002 9.42869C5.50002 10.943 6.03825 12.2378 7.11442 13.3143C8.19058 14.3907 9.48592 14.9287 11 14.9287C12.5142 14.9287 13.8092 14.3904 14.8856 13.3143C15.962 12.2381 16.5 10.943 16.5 9.42869C16.5 8.43844 16.2503 7.51746 15.751 6.66653C17.6252 7.62393 19.1844 9.06874 20.4284 11.0002C19.3401 12.6782 17.9754 14.0143 16.3343 15.0088Z" fill="#A9A9AA"/>
<path d="M21.5 2L2 18.5" stroke="#A9A9AA" stroke-width="2"/>
<path d="M22.5 3L3 19.5" stroke="white" stroke-width="2"/>
</g>
<defs>
<clipPath id="clip0">
<rect width="22" height="22" fill="white"/>
</clipPath>
</defs>
</svg>
