<svg width="22" height="22" viewBox="0 0 22 22" fill="none" xmlns="http://www.w3.org/2000/svg">
<path d="M21.7546 10.153C20.6086 8.27876 19.0677 6.77281 17.1322 5.6352C15.1965 4.49754 13.1525 3.92865 11 3.92865C8.84746 3.92865 6.8034 4.49733 4.86775 5.6352C2.93205 6.77281 1.39127 8.27876 0.245445 10.153C0.0818293 10.4394 0 10.7218 0 11.0002C0 11.2785 0.0818293 11.5609 0.245445 11.8472C1.39127 13.7216 2.93205 15.2276 4.86775 16.365C6.8034 17.5028 8.84746 18.0712 11 18.0712C13.1526 18.0712 15.1966 17.5047 17.1322 16.3712C19.0677 15.2377 20.6088 13.7296 21.7546 11.8472C21.9182 11.5609 22 11.2786 22 11.0002C22 10.7218 21.9182 10.4394 21.7546 10.153ZM8.36645 6.79526C9.09892 6.06279 9.97668 5.69643 10.9999 5.69643C11.1635 5.69643 11.3027 5.75388 11.4174 5.86839C11.5318 5.98294 11.5894 6.12213 11.5894 6.28579C11.5894 6.44958 11.5318 6.58868 11.4176 6.70306C11.3032 6.81775 11.1638 6.87502 11.0002 6.87502C10.2963 6.87502 9.6946 7.12477 9.19541 7.62391C8.69605 8.12336 8.44652 8.72485 8.44652 9.42867C8.44652 9.59255 8.38907 9.73157 8.27456 9.8462C8.15988 9.96093 8.02082 10.0182 7.85716 10.0182C7.69337 10.0182 7.55427 9.9608 7.43963 9.8462C7.32495 9.73157 7.26767 9.59237 7.26767 9.42867C7.26767 8.4057 7.63403 7.52776 8.36645 6.79526ZM16.3343 15.0087C14.6933 16.0029 12.9152 16.5003 11 16.5003C9.08482 16.5003 7.30676 16.0032 5.66579 15.0087C4.02481 14.0143 2.66003 12.6781 1.57153 11.0002C2.81556 9.06855 4.37471 7.62387 6.24896 6.66647C5.74972 7.51753 5.50002 8.43838 5.50002 9.42863C5.50002 10.9429 6.03825 12.2378 7.11442 13.3142C8.19058 14.3906 9.48592 14.9286 11 14.9286C12.5142 14.9286 13.8092 14.3903 14.8856 13.3142C15.962 12.2381 16.5 10.9429 16.5 9.42863C16.5 8.43838 16.2503 7.5174 15.751 6.66647C17.6252 7.62387 19.1844 9.06868 20.4284 11.0002C19.3401 12.6781 17.9754 14.0143 16.3343 15.0087Z" fill="#A9A9AA"/>
</svg>
